<mxfile host="app.diagrams.net" modified="2021-08-17T22:00:35.196Z" agent="5.0 (X11)" etag="0_4XSMhw-VH9V1zAhdeM" version="14.9.7" type="github">
  <diagram id="2LS-sTa04mx1mrBm_Dhq" name="Page-1">
    <mxGraphModel dx="2111" dy="1864" grid="1" gridSize="10" guides="1" tooltips="1" connect="1" arrows="1" fold="1" page="1" pageScale="1" pageWidth="850" pageHeight="1100" math="0" shadow="0">
      <root>
        <mxCell id="0" />
        <mxCell id="1" parent="0" />
        <mxCell id="80GWJ3M3lElaVonBWue8-1" value="properties" style="shape=table;startSize=30;container=1;collapsible=1;childLayout=tableLayout;fixedRows=1;rowLines=0;fontStyle=1;align=center;resizeLast=1;" vertex="1" parent="1">
          <mxGeometry x="10" y="-1020" width="180" height="370" as="geometry" />
        </mxCell>
        <mxCell id="80GWJ3M3lElaVonBWue8-2" value="" style="shape=partialRectangle;collapsible=0;dropTarget=0;pointerEvents=0;fillColor=none;top=0;left=0;bottom=1;right=0;points=[[0,0.5],[1,0.5]];portConstraint=eastwest;" vertex="1" parent="80GWJ3M3lElaVonBWue8-1">
          <mxGeometry y="30" width="180" height="30" as="geometry" />
        </mxCell>
        <mxCell id="80GWJ3M3lElaVonBWue8-3" value="PK" style="shape=partialRectangle;connectable=0;fillColor=none;top=0;left=0;bottom=0;right=0;fontStyle=1;overflow=hidden;" vertex="1" parent="80GWJ3M3lElaVonBWue8-2">
          <mxGeometry width="30" height="30" as="geometry" />
        </mxCell>
        <mxCell id="80GWJ3M3lElaVonBWue8-4" value="id" style="shape=partialRectangle;connectable=0;fillColor=none;top=0;left=0;bottom=0;right=0;align=left;spacingLeft=6;fontStyle=5;overflow=hidden;" vertex="1" parent="80GWJ3M3lElaVonBWue8-2">
          <mxGeometry x="30" width="150" height="30" as="geometry" />
        </mxCell>
        <mxCell id="80GWJ3M3lElaVonBWue8-5" value="" style="shape=partialRectangle;collapsible=0;dropTarget=0;pointerEvents=0;fillColor=none;top=0;left=0;bottom=0;right=0;points=[[0,0.5],[1,0.5]];portConstraint=eastwest;" vertex="1" parent="80GWJ3M3lElaVonBWue8-1">
          <mxGeometry y="60" width="180" height="30" as="geometry" />
        </mxCell>
        <mxCell id="80GWJ3M3lElaVonBWue8-6" value="" style="shape=partialRectangle;connectable=0;fillColor=none;top=0;left=0;bottom=0;right=0;editable=1;overflow=hidden;" vertex="1" parent="80GWJ3M3lElaVonBWue8-5">
          <mxGeometry width="30" height="30" as="geometry" />
        </mxCell>
        <mxCell id="80GWJ3M3lElaVonBWue8-7" value="title        " style="shape=partialRectangle;connectable=0;fillColor=none;top=0;left=0;bottom=0;right=0;align=left;spacingLeft=6;overflow=hidden;" vertex="1" parent="80GWJ3M3lElaVonBWue8-5">
          <mxGeometry x="30" width="150" height="30" as="geometry" />
        </mxCell>
        <mxCell id="80GWJ3M3lElaVonBWue8-8" value="" style="shape=partialRectangle;collapsible=0;dropTarget=0;pointerEvents=0;fillColor=none;top=0;left=0;bottom=0;right=0;points=[[0,0.5],[1,0.5]];portConstraint=eastwest;" vertex="1" parent="80GWJ3M3lElaVonBWue8-1">
          <mxGeometry y="90" width="180" height="30" as="geometry" />
        </mxCell>
        <mxCell id="80GWJ3M3lElaVonBWue8-9" value="" style="shape=partialRectangle;connectable=0;fillColor=none;top=0;left=0;bottom=0;right=0;editable=1;overflow=hidden;" vertex="1" parent="80GWJ3M3lElaVonBWue8-8">
          <mxGeometry width="30" height="30" as="geometry" />
        </mxCell>
        <mxCell id="80GWJ3M3lElaVonBWue8-10" value="description" style="shape=partialRectangle;connectable=0;fillColor=none;top=0;left=0;bottom=0;right=0;align=left;spacingLeft=6;overflow=hidden;" vertex="1" parent="80GWJ3M3lElaVonBWue8-8">
          <mxGeometry x="30" width="150" height="30" as="geometry" />
        </mxCell>
        <mxCell id="80GWJ3M3lElaVonBWue8-11" value="" style="shape=partialRectangle;collapsible=0;dropTarget=0;pointerEvents=0;fillColor=none;top=0;left=0;bottom=0;right=0;points=[[0,0.5],[1,0.5]];portConstraint=eastwest;" vertex="1" parent="80GWJ3M3lElaVonBWue8-1">
          <mxGeometry y="120" width="180" height="30" as="geometry" />
        </mxCell>
        <mxCell id="80GWJ3M3lElaVonBWue8-12" value="" style="shape=partialRectangle;connectable=0;fillColor=none;top=0;left=0;bottom=0;right=0;editable=1;overflow=hidden;" vertex="1" parent="80GWJ3M3lElaVonBWue8-11">
          <mxGeometry width="30" height="30" as="geometry" />
        </mxCell>
        <mxCell id="80GWJ3M3lElaVonBWue8-13" value="cost_per_night" style="shape=partialRectangle;connectable=0;fillColor=none;top=0;left=0;bottom=0;right=0;align=left;spacingLeft=6;overflow=hidden;" vertex="1" parent="80GWJ3M3lElaVonBWue8-11">
          <mxGeometry x="30" width="150" height="30" as="geometry" />
        </mxCell>
        <mxCell id="80GWJ3M3lElaVonBWue8-57" value="" style="shape=partialRectangle;collapsible=0;dropTarget=0;pointerEvents=0;fillColor=none;top=0;left=0;bottom=0;right=0;points=[[0,0.5],[1,0.5]];portConstraint=eastwest;" vertex="1" parent="80GWJ3M3lElaVonBWue8-1">
          <mxGeometry y="150" width="180" height="30" as="geometry" />
        </mxCell>
        <mxCell id="80GWJ3M3lElaVonBWue8-58" value="" style="shape=partialRectangle;connectable=0;fillColor=none;top=0;left=0;bottom=0;right=0;editable=1;overflow=hidden;" vertex="1" parent="80GWJ3M3lElaVonBWue8-57">
          <mxGeometry width="30" height="30" as="geometry" />
        </mxCell>
        <mxCell id="80GWJ3M3lElaVonBWue8-59" value="parking_spaces" style="shape=partialRectangle;connectable=0;fillColor=none;top=0;left=0;bottom=0;right=0;align=left;spacingLeft=6;overflow=hidden;" vertex="1" parent="80GWJ3M3lElaVonBWue8-57">
          <mxGeometry x="30" width="150" height="30" as="geometry" />
        </mxCell>
        <mxCell id="80GWJ3M3lElaVonBWue8-60" value="" style="shape=partialRectangle;collapsible=0;dropTarget=0;pointerEvents=0;fillColor=none;top=0;left=0;bottom=0;right=0;points=[[0,0.5],[1,0.5]];portConstraint=eastwest;" vertex="1" parent="80GWJ3M3lElaVonBWue8-1">
          <mxGeometry y="180" width="180" height="30" as="geometry" />
        </mxCell>
        <mxCell id="80GWJ3M3lElaVonBWue8-61" value="" style="shape=partialRectangle;connectable=0;fillColor=none;top=0;left=0;bottom=0;right=0;editable=1;overflow=hidden;" vertex="1" parent="80GWJ3M3lElaVonBWue8-60">
          <mxGeometry width="30" height="30" as="geometry" />
        </mxCell>
        <mxCell id="80GWJ3M3lElaVonBWue8-62" value="number_of_bathrooms" style="shape=partialRectangle;connectable=0;fillColor=none;top=0;left=0;bottom=0;right=0;align=left;spacingLeft=6;overflow=hidden;" vertex="1" parent="80GWJ3M3lElaVonBWue8-60">
          <mxGeometry x="30" width="150" height="30" as="geometry" />
        </mxCell>
        <mxCell id="80GWJ3M3lElaVonBWue8-82" value="" style="shape=partialRectangle;collapsible=0;dropTarget=0;pointerEvents=0;fillColor=none;top=0;left=0;bottom=0;right=0;points=[[0,0.5],[1,0.5]];portConstraint=eastwest;" vertex="1" parent="80GWJ3M3lElaVonBWue8-1">
          <mxGeometry y="210" width="180" height="30" as="geometry" />
        </mxCell>
        <mxCell id="80GWJ3M3lElaVonBWue8-83" value="" style="shape=partialRectangle;connectable=0;fillColor=none;top=0;left=0;bottom=0;right=0;editable=1;overflow=hidden;" vertex="1" parent="80GWJ3M3lElaVonBWue8-82">
          <mxGeometry width="30" height="30" as="geometry" />
        </mxCell>
        <mxCell id="80GWJ3M3lElaVonBWue8-84" value="number_of_bedrooms" style="shape=partialRectangle;connectable=0;fillColor=none;top=0;left=0;bottom=0;right=0;align=left;spacingLeft=6;overflow=hidden;" vertex="1" parent="80GWJ3M3lElaVonBWue8-82">
          <mxGeometry x="30" width="150" height="30" as="geometry" />
        </mxCell>
        <mxCell id="80GWJ3M3lElaVonBWue8-85" value="" style="shape=partialRectangle;collapsible=0;dropTarget=0;pointerEvents=0;fillColor=none;top=0;left=0;bottom=0;right=0;points=[[0,0.5],[1,0.5]];portConstraint=eastwest;" vertex="1" parent="80GWJ3M3lElaVonBWue8-1">
          <mxGeometry y="240" width="180" height="30" as="geometry" />
        </mxCell>
        <mxCell id="80GWJ3M3lElaVonBWue8-86" value="FK" style="shape=partialRectangle;connectable=0;fillColor=none;top=0;left=0;bottom=0;right=0;editable=1;overflow=hidden;" vertex="1" parent="80GWJ3M3lElaVonBWue8-85">
          <mxGeometry width="30" height="30" as="geometry" />
        </mxCell>
        <mxCell id="80GWJ3M3lElaVonBWue8-87" value="url_id" style="shape=partialRectangle;connectable=0;fillColor=none;top=0;left=0;bottom=0;right=0;align=left;spacingLeft=6;overflow=hidden;" vertex="1" parent="80GWJ3M3lElaVonBWue8-85">
          <mxGeometry x="30" width="150" height="30" as="geometry" />
        </mxCell>
        <mxCell id="80GWJ3M3lElaVonBWue8-107" value="" style="shape=partialRectangle;collapsible=0;dropTarget=0;pointerEvents=0;fillColor=none;top=0;left=0;bottom=0;right=0;points=[[0,0.5],[1,0.5]];portConstraint=eastwest;" vertex="1" parent="80GWJ3M3lElaVonBWue8-1">
          <mxGeometry y="270" width="180" height="30" as="geometry" />
        </mxCell>
        <mxCell id="80GWJ3M3lElaVonBWue8-108" value="FK" style="shape=partialRectangle;connectable=0;fillColor=none;top=0;left=0;bottom=0;right=0;editable=1;overflow=hidden;" vertex="1" parent="80GWJ3M3lElaVonBWue8-107">
          <mxGeometry width="30" height="30" as="geometry" />
        </mxCell>
        <mxCell id="80GWJ3M3lElaVonBWue8-109" value="user_id" style="shape=partialRectangle;connectable=0;fillColor=none;top=0;left=0;bottom=0;right=0;align=left;spacingLeft=6;overflow=hidden;" vertex="1" parent="80GWJ3M3lElaVonBWue8-107">
          <mxGeometry x="30" width="150" height="30" as="geometry" />
        </mxCell>
        <mxCell id="80GWJ3M3lElaVonBWue8-110" value="" style="shape=partialRectangle;collapsible=0;dropTarget=0;pointerEvents=0;fillColor=none;top=0;left=0;bottom=0;right=0;points=[[0,0.5],[1,0.5]];portConstraint=eastwest;" vertex="1" parent="80GWJ3M3lElaVonBWue8-1">
          <mxGeometry y="300" width="180" height="30" as="geometry" />
        </mxCell>
        <mxCell id="80GWJ3M3lElaVonBWue8-111" value="FK" style="shape=partialRectangle;connectable=0;fillColor=none;top=0;left=0;bottom=0;right=0;editable=1;overflow=hidden;" vertex="1" parent="80GWJ3M3lElaVonBWue8-110">
          <mxGeometry width="30" height="30" as="geometry" />
        </mxCell>
        <mxCell id="80GWJ3M3lElaVonBWue8-112" value="address_id" style="shape=partialRectangle;connectable=0;fillColor=none;top=0;left=0;bottom=0;right=0;align=left;spacingLeft=6;overflow=hidden;" vertex="1" parent="80GWJ3M3lElaVonBWue8-110">
          <mxGeometry x="30" width="150" height="30" as="geometry" />
        </mxCell>
        <mxCell id="80GWJ3M3lElaVonBWue8-113" value="" style="shape=partialRectangle;collapsible=0;dropTarget=0;pointerEvents=0;fillColor=none;top=0;left=0;bottom=0;right=0;points=[[0,0.5],[1,0.5]];portConstraint=eastwest;" vertex="1" parent="80GWJ3M3lElaVonBWue8-1">
          <mxGeometry y="330" width="180" height="30" as="geometry" />
        </mxCell>
        <mxCell id="80GWJ3M3lElaVonBWue8-114" value="" style="shape=partialRectangle;connectable=0;fillColor=none;top=0;left=0;bottom=0;right=0;editable=1;overflow=hidden;" vertex="1" parent="80GWJ3M3lElaVonBWue8-113">
          <mxGeometry width="30" height="30" as="geometry" />
        </mxCell>
        <mxCell id="80GWJ3M3lElaVonBWue8-115" value="url" style="shape=partialRectangle;connectable=0;fillColor=none;top=0;left=0;bottom=0;right=0;align=left;spacingLeft=6;overflow=hidden;" vertex="1" parent="80GWJ3M3lElaVonBWue8-113">
          <mxGeometry x="30" width="150" height="30" as="geometry" />
        </mxCell>
        <mxCell id="80GWJ3M3lElaVonBWue8-14" value="users" style="shape=table;startSize=30;container=1;collapsible=1;childLayout=tableLayout;fixedRows=1;rowLines=0;fontStyle=1;align=center;resizeLast=1;" vertex="1" parent="1">
          <mxGeometry x="-800" y="-470" width="180" height="220" as="geometry" />
        </mxCell>
        <mxCell id="80GWJ3M3lElaVonBWue8-15" value="" style="shape=partialRectangle;collapsible=0;dropTarget=0;pointerEvents=0;fillColor=none;top=0;left=0;bottom=1;right=0;points=[[0,0.5],[1,0.5]];portConstraint=eastwest;" vertex="1" parent="80GWJ3M3lElaVonBWue8-14">
          <mxGeometry y="30" width="180" height="30" as="geometry" />
        </mxCell>
        <mxCell id="80GWJ3M3lElaVonBWue8-16" value="PK" style="shape=partialRectangle;connectable=0;fillColor=none;top=0;left=0;bottom=0;right=0;fontStyle=1;overflow=hidden;" vertex="1" parent="80GWJ3M3lElaVonBWue8-15">
          <mxGeometry width="30" height="30" as="geometry" />
        </mxCell>
        <mxCell id="80GWJ3M3lElaVonBWue8-17" value="id" style="shape=partialRectangle;connectable=0;fillColor=none;top=0;left=0;bottom=0;right=0;align=left;spacingLeft=6;fontStyle=5;overflow=hidden;" vertex="1" parent="80GWJ3M3lElaVonBWue8-15">
          <mxGeometry x="30" width="150" height="30" as="geometry" />
        </mxCell>
        <mxCell id="80GWJ3M3lElaVonBWue8-18" value="" style="shape=partialRectangle;collapsible=0;dropTarget=0;pointerEvents=0;fillColor=none;top=0;left=0;bottom=0;right=0;points=[[0,0.5],[1,0.5]];portConstraint=eastwest;" vertex="1" parent="80GWJ3M3lElaVonBWue8-14">
          <mxGeometry y="60" width="180" height="30" as="geometry" />
        </mxCell>
        <mxCell id="80GWJ3M3lElaVonBWue8-19" value="" style="shape=partialRectangle;connectable=0;fillColor=none;top=0;left=0;bottom=0;right=0;editable=1;overflow=hidden;" vertex="1" parent="80GWJ3M3lElaVonBWue8-18">
          <mxGeometry width="30" height="30" as="geometry" />
        </mxCell>
        <mxCell id="80GWJ3M3lElaVonBWue8-20" value="name" style="shape=partialRectangle;connectable=0;fillColor=none;top=0;left=0;bottom=0;right=0;align=left;spacingLeft=6;overflow=hidden;" vertex="1" parent="80GWJ3M3lElaVonBWue8-18">
          <mxGeometry x="30" width="150" height="30" as="geometry" />
        </mxCell>
        <mxCell id="80GWJ3M3lElaVonBWue8-21" value="" style="shape=partialRectangle;collapsible=0;dropTarget=0;pointerEvents=0;fillColor=none;top=0;left=0;bottom=0;right=0;points=[[0,0.5],[1,0.5]];portConstraint=eastwest;" vertex="1" parent="80GWJ3M3lElaVonBWue8-14">
          <mxGeometry y="90" width="180" height="30" as="geometry" />
        </mxCell>
        <mxCell id="80GWJ3M3lElaVonBWue8-22" value="" style="shape=partialRectangle;connectable=0;fillColor=none;top=0;left=0;bottom=0;right=0;editable=1;overflow=hidden;" vertex="1" parent="80GWJ3M3lElaVonBWue8-21">
          <mxGeometry width="30" height="30" as="geometry" />
        </mxCell>
        <mxCell id="80GWJ3M3lElaVonBWue8-23" value="email_address" style="shape=partialRectangle;connectable=0;fillColor=none;top=0;left=0;bottom=0;right=0;align=left;spacingLeft=6;overflow=hidden;" vertex="1" parent="80GWJ3M3lElaVonBWue8-21">
          <mxGeometry x="30" width="150" height="30" as="geometry" />
        </mxCell>
        <mxCell id="80GWJ3M3lElaVonBWue8-24" value="" style="shape=partialRectangle;collapsible=0;dropTarget=0;pointerEvents=0;fillColor=none;top=0;left=0;bottom=0;right=0;points=[[0,0.5],[1,0.5]];portConstraint=eastwest;" vertex="1" parent="80GWJ3M3lElaVonBWue8-14">
          <mxGeometry y="120" width="180" height="30" as="geometry" />
        </mxCell>
        <mxCell id="80GWJ3M3lElaVonBWue8-25" value="" style="shape=partialRectangle;connectable=0;fillColor=none;top=0;left=0;bottom=0;right=0;editable=1;overflow=hidden;" vertex="1" parent="80GWJ3M3lElaVonBWue8-24">
          <mxGeometry width="30" height="30" as="geometry" />
        </mxCell>
        <mxCell id="80GWJ3M3lElaVonBWue8-26" value="password" style="shape=partialRectangle;connectable=0;fillColor=none;top=0;left=0;bottom=0;right=0;align=left;spacingLeft=6;overflow=hidden;" vertex="1" parent="80GWJ3M3lElaVonBWue8-24">
          <mxGeometry x="30" width="150" height="30" as="geometry" />
        </mxCell>
        <mxCell id="80GWJ3M3lElaVonBWue8-170" value="" style="shape=partialRectangle;collapsible=0;dropTarget=0;pointerEvents=0;fillColor=none;top=0;left=0;bottom=0;right=0;points=[[0,0.5],[1,0.5]];portConstraint=eastwest;" vertex="1" parent="80GWJ3M3lElaVonBWue8-14">
          <mxGeometry y="150" width="180" height="30" as="geometry" />
        </mxCell>
        <mxCell id="80GWJ3M3lElaVonBWue8-171" value="FK" style="shape=partialRectangle;connectable=0;fillColor=none;top=0;left=0;bottom=0;right=0;editable=1;overflow=hidden;" vertex="1" parent="80GWJ3M3lElaVonBWue8-170">
          <mxGeometry width="30" height="30" as="geometry" />
        </mxCell>
        <mxCell id="80GWJ3M3lElaVonBWue8-172" value="owner_id" style="shape=partialRectangle;connectable=0;fillColor=none;top=0;left=0;bottom=0;right=0;align=left;spacingLeft=6;overflow=hidden;" vertex="1" parent="80GWJ3M3lElaVonBWue8-170">
          <mxGeometry x="30" width="150" height="30" as="geometry" />
        </mxCell>
        <mxCell id="80GWJ3M3lElaVonBWue8-173" value="" style="shape=partialRectangle;collapsible=0;dropTarget=0;pointerEvents=0;fillColor=none;top=0;left=0;bottom=0;right=0;points=[[0,0.5],[1,0.5]];portConstraint=eastwest;" vertex="1" parent="80GWJ3M3lElaVonBWue8-14">
          <mxGeometry y="180" width="180" height="30" as="geometry" />
        </mxCell>
        <mxCell id="80GWJ3M3lElaVonBWue8-174" value="" style="shape=partialRectangle;connectable=0;fillColor=none;top=0;left=0;bottom=0;right=0;editable=1;overflow=hidden;" vertex="1" parent="80GWJ3M3lElaVonBWue8-173">
          <mxGeometry width="30" height="30" as="geometry" />
        </mxCell>
        <mxCell id="80GWJ3M3lElaVonBWue8-175" value="guest_id" style="shape=partialRectangle;connectable=0;fillColor=none;top=0;left=0;bottom=0;right=0;align=left;spacingLeft=6;overflow=hidden;" vertex="1" parent="80GWJ3M3lElaVonBWue8-173">
          <mxGeometry x="30" width="150" height="30" as="geometry" />
        </mxCell>
        <mxCell id="80GWJ3M3lElaVonBWue8-27" value="property reviews" style="shape=table;startSize=30;container=1;collapsible=1;childLayout=tableLayout;fixedRows=1;rowLines=0;fontStyle=1;align=center;resizeLast=1;" vertex="1" parent="1">
          <mxGeometry x="-320" y="-950" width="180" height="220" as="geometry" />
        </mxCell>
        <mxCell id="80GWJ3M3lElaVonBWue8-28" value="" style="shape=partialRectangle;collapsible=0;dropTarget=0;pointerEvents=0;fillColor=none;top=0;left=0;bottom=1;right=0;points=[[0,0.5],[1,0.5]];portConstraint=eastwest;" vertex="1" parent="80GWJ3M3lElaVonBWue8-27">
          <mxGeometry y="30" width="180" height="30" as="geometry" />
        </mxCell>
        <mxCell id="80GWJ3M3lElaVonBWue8-29" value="PK" style="shape=partialRectangle;connectable=0;fillColor=none;top=0;left=0;bottom=0;right=0;fontStyle=1;overflow=hidden;" vertex="1" parent="80GWJ3M3lElaVonBWue8-28">
          <mxGeometry width="30" height="30" as="geometry" />
        </mxCell>
        <mxCell id="80GWJ3M3lElaVonBWue8-30" value="id" style="shape=partialRectangle;connectable=0;fillColor=none;top=0;left=0;bottom=0;right=0;align=left;spacingLeft=6;fontStyle=5;overflow=hidden;" vertex="1" parent="80GWJ3M3lElaVonBWue8-28">
          <mxGeometry x="30" width="150" height="30" as="geometry" />
        </mxCell>
        <mxCell id="80GWJ3M3lElaVonBWue8-31" value="" style="shape=partialRectangle;collapsible=0;dropTarget=0;pointerEvents=0;fillColor=none;top=0;left=0;bottom=0;right=0;points=[[0,0.5],[1,0.5]];portConstraint=eastwest;" vertex="1" parent="80GWJ3M3lElaVonBWue8-27">
          <mxGeometry y="60" width="180" height="30" as="geometry" />
        </mxCell>
        <mxCell id="80GWJ3M3lElaVonBWue8-32" value="" style="shape=partialRectangle;connectable=0;fillColor=none;top=0;left=0;bottom=0;right=0;editable=1;overflow=hidden;" vertex="1" parent="80GWJ3M3lElaVonBWue8-31">
          <mxGeometry width="30" height="30" as="geometry" />
        </mxCell>
        <mxCell id="80GWJ3M3lElaVonBWue8-33" value="messege" style="shape=partialRectangle;connectable=0;fillColor=none;top=0;left=0;bottom=0;right=0;align=left;spacingLeft=6;overflow=hidden;" vertex="1" parent="80GWJ3M3lElaVonBWue8-31">
          <mxGeometry x="30" width="150" height="30" as="geometry" />
        </mxCell>
        <mxCell id="80GWJ3M3lElaVonBWue8-34" value="" style="shape=partialRectangle;collapsible=0;dropTarget=0;pointerEvents=0;fillColor=none;top=0;left=0;bottom=0;right=0;points=[[0,0.5],[1,0.5]];portConstraint=eastwest;" vertex="1" parent="80GWJ3M3lElaVonBWue8-27">
          <mxGeometry y="90" width="180" height="30" as="geometry" />
        </mxCell>
        <mxCell id="80GWJ3M3lElaVonBWue8-35" value="" style="shape=partialRectangle;connectable=0;fillColor=none;top=0;left=0;bottom=0;right=0;editable=1;overflow=hidden;" vertex="1" parent="80GWJ3M3lElaVonBWue8-34">
          <mxGeometry width="30" height="30" as="geometry" />
        </mxCell>
        <mxCell id="80GWJ3M3lElaVonBWue8-36" value="rating" style="shape=partialRectangle;connectable=0;fillColor=none;top=0;left=0;bottom=0;right=0;align=left;spacingLeft=6;overflow=hidden;" vertex="1" parent="80GWJ3M3lElaVonBWue8-34">
          <mxGeometry x="30" width="150" height="30" as="geometry" />
        </mxCell>
        <mxCell id="80GWJ3M3lElaVonBWue8-37" value="" style="shape=partialRectangle;collapsible=0;dropTarget=0;pointerEvents=0;fillColor=none;top=0;left=0;bottom=0;right=0;points=[[0,0.5],[1,0.5]];portConstraint=eastwest;" vertex="1" parent="80GWJ3M3lElaVonBWue8-27">
          <mxGeometry y="120" width="180" height="30" as="geometry" />
        </mxCell>
        <mxCell id="80GWJ3M3lElaVonBWue8-38" value="FK" style="shape=partialRectangle;connectable=0;fillColor=none;top=0;left=0;bottom=0;right=0;editable=1;overflow=hidden;" vertex="1" parent="80GWJ3M3lElaVonBWue8-37">
          <mxGeometry width="30" height="30" as="geometry" />
        </mxCell>
        <mxCell id="80GWJ3M3lElaVonBWue8-39" value="guest_id" style="shape=partialRectangle;connectable=0;fillColor=none;top=0;left=0;bottom=0;right=0;align=left;spacingLeft=6;overflow=hidden;" vertex="1" parent="80GWJ3M3lElaVonBWue8-37">
          <mxGeometry x="30" width="150" height="30" as="geometry" />
        </mxCell>
        <mxCell id="80GWJ3M3lElaVonBWue8-165" value="" style="shape=partialRectangle;collapsible=0;dropTarget=0;pointerEvents=0;fillColor=none;top=0;left=0;bottom=0;right=0;points=[[0,0.5],[1,0.5]];portConstraint=eastwest;" vertex="1" parent="80GWJ3M3lElaVonBWue8-27">
          <mxGeometry y="150" width="180" height="30" as="geometry" />
        </mxCell>
        <mxCell id="80GWJ3M3lElaVonBWue8-166" value="FK" style="shape=partialRectangle;connectable=0;fillColor=none;top=0;left=0;bottom=0;right=0;editable=1;overflow=hidden;" vertex="1" parent="80GWJ3M3lElaVonBWue8-165">
          <mxGeometry width="30" height="30" as="geometry" />
        </mxCell>
        <mxCell id="80GWJ3M3lElaVonBWue8-167" value="reservation_id" style="shape=partialRectangle;connectable=0;fillColor=none;top=0;left=0;bottom=0;right=0;align=left;spacingLeft=6;overflow=hidden;" vertex="1" parent="80GWJ3M3lElaVonBWue8-165">
          <mxGeometry x="30" width="150" height="30" as="geometry" />
        </mxCell>
        <mxCell id="80GWJ3M3lElaVonBWue8-195" value="" style="shape=partialRectangle;collapsible=0;dropTarget=0;pointerEvents=0;fillColor=none;top=0;left=0;bottom=0;right=0;points=[[0,0.5],[1,0.5]];portConstraint=eastwest;" vertex="1" parent="80GWJ3M3lElaVonBWue8-27">
          <mxGeometry y="180" width="180" height="30" as="geometry" />
        </mxCell>
        <mxCell id="80GWJ3M3lElaVonBWue8-196" value="FK" style="shape=partialRectangle;connectable=0;fillColor=none;top=0;left=0;bottom=0;right=0;editable=1;overflow=hidden;" vertex="1" parent="80GWJ3M3lElaVonBWue8-195">
          <mxGeometry width="30" height="30" as="geometry" />
        </mxCell>
        <mxCell id="80GWJ3M3lElaVonBWue8-197" value="property_id" style="shape=partialRectangle;connectable=0;fillColor=none;top=0;left=0;bottom=0;right=0;align=left;spacingLeft=6;overflow=hidden;" vertex="1" parent="80GWJ3M3lElaVonBWue8-195">
          <mxGeometry x="30" width="150" height="30" as="geometry" />
        </mxCell>
        <mxCell id="80GWJ3M3lElaVonBWue8-40" value="reservations" style="shape=table;startSize=30;container=1;collapsible=1;childLayout=tableLayout;fixedRows=1;rowLines=0;fontStyle=1;align=center;resizeLast=1;" vertex="1" parent="1">
          <mxGeometry x="70" y="-140" width="180" height="180" as="geometry" />
        </mxCell>
        <mxCell id="80GWJ3M3lElaVonBWue8-41" value="" style="shape=partialRectangle;collapsible=0;dropTarget=0;pointerEvents=0;fillColor=none;top=0;left=0;bottom=1;right=0;points=[[0,0.5],[1,0.5]];portConstraint=eastwest;" vertex="1" parent="80GWJ3M3lElaVonBWue8-40">
          <mxGeometry y="30" width="180" height="30" as="geometry" />
        </mxCell>
        <mxCell id="80GWJ3M3lElaVonBWue8-42" value="PK" style="shape=partialRectangle;connectable=0;fillColor=none;top=0;left=0;bottom=0;right=0;fontStyle=1;overflow=hidden;" vertex="1" parent="80GWJ3M3lElaVonBWue8-41">
          <mxGeometry width="30" height="30" as="geometry" />
        </mxCell>
        <mxCell id="80GWJ3M3lElaVonBWue8-43" value="id" style="shape=partialRectangle;connectable=0;fillColor=none;top=0;left=0;bottom=0;right=0;align=left;spacingLeft=6;fontStyle=5;overflow=hidden;" vertex="1" parent="80GWJ3M3lElaVonBWue8-41">
          <mxGeometry x="30" width="150" height="30" as="geometry" />
        </mxCell>
        <mxCell id="80GWJ3M3lElaVonBWue8-44" value="" style="shape=partialRectangle;collapsible=0;dropTarget=0;pointerEvents=0;fillColor=none;top=0;left=0;bottom=0;right=0;points=[[0,0.5],[1,0.5]];portConstraint=eastwest;" vertex="1" parent="80GWJ3M3lElaVonBWue8-40">
          <mxGeometry y="60" width="180" height="20" as="geometry" />
        </mxCell>
        <mxCell id="80GWJ3M3lElaVonBWue8-45" value="" style="shape=partialRectangle;connectable=0;fillColor=none;top=0;left=0;bottom=0;right=0;editable=1;overflow=hidden;" vertex="1" parent="80GWJ3M3lElaVonBWue8-44">
          <mxGeometry width="30" height="20" as="geometry" />
        </mxCell>
        <mxCell id="80GWJ3M3lElaVonBWue8-46" value="start_date" style="shape=partialRectangle;connectable=0;fillColor=none;top=0;left=0;bottom=0;right=0;align=left;spacingLeft=6;overflow=hidden;" vertex="1" parent="80GWJ3M3lElaVonBWue8-44">
          <mxGeometry x="30" width="150" height="20" as="geometry" />
        </mxCell>
        <mxCell id="80GWJ3M3lElaVonBWue8-47" value="" style="shape=partialRectangle;collapsible=0;dropTarget=0;pointerEvents=0;fillColor=none;top=0;left=0;bottom=0;right=0;points=[[0,0.5],[1,0.5]];portConstraint=eastwest;" vertex="1" parent="80GWJ3M3lElaVonBWue8-40">
          <mxGeometry y="80" width="180" height="30" as="geometry" />
        </mxCell>
        <mxCell id="80GWJ3M3lElaVonBWue8-48" value="" style="shape=partialRectangle;connectable=0;fillColor=none;top=0;left=0;bottom=0;right=0;editable=1;overflow=hidden;" vertex="1" parent="80GWJ3M3lElaVonBWue8-47">
          <mxGeometry width="30" height="30" as="geometry" />
        </mxCell>
        <mxCell id="80GWJ3M3lElaVonBWue8-49" value="end_date" style="shape=partialRectangle;connectable=0;fillColor=none;top=0;left=0;bottom=0;right=0;align=left;spacingLeft=6;overflow=hidden;" vertex="1" parent="80GWJ3M3lElaVonBWue8-47">
          <mxGeometry x="30" width="150" height="30" as="geometry" />
        </mxCell>
        <mxCell id="80GWJ3M3lElaVonBWue8-50" value="" style="shape=partialRectangle;collapsible=0;dropTarget=0;pointerEvents=0;fillColor=none;top=0;left=0;bottom=0;right=0;points=[[0,0.5],[1,0.5]];portConstraint=eastwest;" vertex="1" parent="80GWJ3M3lElaVonBWue8-40">
          <mxGeometry y="110" width="180" height="30" as="geometry" />
        </mxCell>
        <mxCell id="80GWJ3M3lElaVonBWue8-51" value="" style="shape=partialRectangle;connectable=0;fillColor=none;top=0;left=0;bottom=0;right=0;editable=1;overflow=hidden;" vertex="1" parent="80GWJ3M3lElaVonBWue8-50">
          <mxGeometry width="30" height="30" as="geometry" />
        </mxCell>
        <mxCell id="80GWJ3M3lElaVonBWue8-52" value="property_id" style="shape=partialRectangle;connectable=0;fillColor=none;top=0;left=0;bottom=0;right=0;align=left;spacingLeft=6;overflow=hidden;" vertex="1" parent="80GWJ3M3lElaVonBWue8-50">
          <mxGeometry x="30" width="150" height="30" as="geometry" />
        </mxCell>
        <mxCell id="80GWJ3M3lElaVonBWue8-160" value="" style="shape=partialRectangle;collapsible=0;dropTarget=0;pointerEvents=0;fillColor=none;top=0;left=0;bottom=0;right=0;points=[[0,0.5],[1,0.5]];portConstraint=eastwest;" vertex="1" parent="80GWJ3M3lElaVonBWue8-40">
          <mxGeometry y="140" width="180" height="30" as="geometry" />
        </mxCell>
        <mxCell id="80GWJ3M3lElaVonBWue8-161" value="" style="shape=partialRectangle;connectable=0;fillColor=none;top=0;left=0;bottom=0;right=0;editable=1;overflow=hidden;" vertex="1" parent="80GWJ3M3lElaVonBWue8-160">
          <mxGeometry width="30" height="30" as="geometry" />
        </mxCell>
        <mxCell id="80GWJ3M3lElaVonBWue8-162" value="guest_id" style="shape=partialRectangle;connectable=0;fillColor=none;top=0;left=0;bottom=0;right=0;align=left;spacingLeft=6;overflow=hidden;" vertex="1" parent="80GWJ3M3lElaVonBWue8-160">
          <mxGeometry x="30" width="150" height="30" as="geometry" />
        </mxCell>
        <mxCell id="80GWJ3M3lElaVonBWue8-88" value="address" style="shape=table;startSize=30;container=1;collapsible=1;childLayout=tableLayout;fixedRows=1;rowLines=0;fontStyle=1;align=center;resizeLast=1;" vertex="1" parent="1">
          <mxGeometry x="-730" y="360" width="180" height="220" as="geometry" />
        </mxCell>
        <mxCell id="80GWJ3M3lElaVonBWue8-89" value="" style="shape=partialRectangle;collapsible=0;dropTarget=0;pointerEvents=0;fillColor=none;top=0;left=0;bottom=1;right=0;points=[[0,0.5],[1,0.5]];portConstraint=eastwest;" vertex="1" parent="80GWJ3M3lElaVonBWue8-88">
          <mxGeometry y="30" width="180" height="30" as="geometry" />
        </mxCell>
        <mxCell id="80GWJ3M3lElaVonBWue8-90" value="PK" style="shape=partialRectangle;connectable=0;fillColor=none;top=0;left=0;bottom=0;right=0;fontStyle=1;overflow=hidden;" vertex="1" parent="80GWJ3M3lElaVonBWue8-89">
          <mxGeometry width="30" height="30" as="geometry" />
        </mxCell>
        <mxCell id="80GWJ3M3lElaVonBWue8-91" value="id" style="shape=partialRectangle;connectable=0;fillColor=none;top=0;left=0;bottom=0;right=0;align=left;spacingLeft=6;fontStyle=5;overflow=hidden;" vertex="1" parent="80GWJ3M3lElaVonBWue8-89">
          <mxGeometry x="30" width="150" height="30" as="geometry" />
        </mxCell>
        <mxCell id="80GWJ3M3lElaVonBWue8-92" value="" style="shape=partialRectangle;collapsible=0;dropTarget=0;pointerEvents=0;fillColor=none;top=0;left=0;bottom=0;right=0;points=[[0,0.5],[1,0.5]];portConstraint=eastwest;" vertex="1" parent="80GWJ3M3lElaVonBWue8-88">
          <mxGeometry y="60" width="180" height="30" as="geometry" />
        </mxCell>
        <mxCell id="80GWJ3M3lElaVonBWue8-93" value="" style="shape=partialRectangle;connectable=0;fillColor=none;top=0;left=0;bottom=0;right=0;editable=1;overflow=hidden;" vertex="1" parent="80GWJ3M3lElaVonBWue8-92">
          <mxGeometry width="30" height="30" as="geometry" />
        </mxCell>
        <mxCell id="80GWJ3M3lElaVonBWue8-94" value="country" style="shape=partialRectangle;connectable=0;fillColor=none;top=0;left=0;bottom=0;right=0;align=left;spacingLeft=6;overflow=hidden;" vertex="1" parent="80GWJ3M3lElaVonBWue8-92">
          <mxGeometry x="30" width="150" height="30" as="geometry" />
        </mxCell>
        <mxCell id="80GWJ3M3lElaVonBWue8-95" value="" style="shape=partialRectangle;collapsible=0;dropTarget=0;pointerEvents=0;fillColor=none;top=0;left=0;bottom=0;right=0;points=[[0,0.5],[1,0.5]];portConstraint=eastwest;" vertex="1" parent="80GWJ3M3lElaVonBWue8-88">
          <mxGeometry y="90" width="180" height="30" as="geometry" />
        </mxCell>
        <mxCell id="80GWJ3M3lElaVonBWue8-96" value="" style="shape=partialRectangle;connectable=0;fillColor=none;top=0;left=0;bottom=0;right=0;editable=1;overflow=hidden;" vertex="1" parent="80GWJ3M3lElaVonBWue8-95">
          <mxGeometry width="30" height="30" as="geometry" />
        </mxCell>
        <mxCell id="80GWJ3M3lElaVonBWue8-97" value="street" style="shape=partialRectangle;connectable=0;fillColor=none;top=0;left=0;bottom=0;right=0;align=left;spacingLeft=6;overflow=hidden;" vertex="1" parent="80GWJ3M3lElaVonBWue8-95">
          <mxGeometry x="30" width="150" height="30" as="geometry" />
        </mxCell>
        <mxCell id="80GWJ3M3lElaVonBWue8-98" value="" style="shape=partialRectangle;collapsible=0;dropTarget=0;pointerEvents=0;fillColor=none;top=0;left=0;bottom=0;right=0;points=[[0,0.5],[1,0.5]];portConstraint=eastwest;" vertex="1" parent="80GWJ3M3lElaVonBWue8-88">
          <mxGeometry y="120" width="180" height="30" as="geometry" />
        </mxCell>
        <mxCell id="80GWJ3M3lElaVonBWue8-99" value="" style="shape=partialRectangle;connectable=0;fillColor=none;top=0;left=0;bottom=0;right=0;editable=1;overflow=hidden;" vertex="1" parent="80GWJ3M3lElaVonBWue8-98">
          <mxGeometry width="30" height="30" as="geometry" />
        </mxCell>
        <mxCell id="80GWJ3M3lElaVonBWue8-100" value="city" style="shape=partialRectangle;connectable=0;fillColor=none;top=0;left=0;bottom=0;right=0;align=left;spacingLeft=6;overflow=hidden;" vertex="1" parent="80GWJ3M3lElaVonBWue8-98">
          <mxGeometry x="30" width="150" height="30" as="geometry" />
        </mxCell>
        <mxCell id="80GWJ3M3lElaVonBWue8-101" value="" style="shape=partialRectangle;collapsible=0;dropTarget=0;pointerEvents=0;fillColor=none;top=0;left=0;bottom=0;right=0;points=[[0,0.5],[1,0.5]];portConstraint=eastwest;" vertex="1" parent="80GWJ3M3lElaVonBWue8-88">
          <mxGeometry y="150" width="180" height="30" as="geometry" />
        </mxCell>
        <mxCell id="80GWJ3M3lElaVonBWue8-102" value="" style="shape=partialRectangle;connectable=0;fillColor=none;top=0;left=0;bottom=0;right=0;editable=1;overflow=hidden;" vertex="1" parent="80GWJ3M3lElaVonBWue8-101">
          <mxGeometry width="30" height="30" as="geometry" />
        </mxCell>
        <mxCell id="80GWJ3M3lElaVonBWue8-103" value="province" style="shape=partialRectangle;connectable=0;fillColor=none;top=0;left=0;bottom=0;right=0;align=left;spacingLeft=6;overflow=hidden;" vertex="1" parent="80GWJ3M3lElaVonBWue8-101">
          <mxGeometry x="30" width="150" height="30" as="geometry" />
        </mxCell>
        <mxCell id="80GWJ3M3lElaVonBWue8-104" value="" style="shape=partialRectangle;collapsible=0;dropTarget=0;pointerEvents=0;fillColor=none;top=0;left=0;bottom=0;right=0;points=[[0,0.5],[1,0.5]];portConstraint=eastwest;" vertex="1" parent="80GWJ3M3lElaVonBWue8-88">
          <mxGeometry y="180" width="180" height="30" as="geometry" />
        </mxCell>
        <mxCell id="80GWJ3M3lElaVonBWue8-105" value="" style="shape=partialRectangle;connectable=0;fillColor=none;top=0;left=0;bottom=0;right=0;editable=1;overflow=hidden;" vertex="1" parent="80GWJ3M3lElaVonBWue8-104">
          <mxGeometry width="30" height="30" as="geometry" />
        </mxCell>
        <mxCell id="80GWJ3M3lElaVonBWue8-106" value="post_code" style="shape=partialRectangle;connectable=0;fillColor=none;top=0;left=0;bottom=0;right=0;align=left;spacingLeft=6;overflow=hidden;" vertex="1" parent="80GWJ3M3lElaVonBWue8-104">
          <mxGeometry x="30" width="150" height="30" as="geometry" />
        </mxCell>
        <mxCell id="80GWJ3M3lElaVonBWue8-116" value="" style="edgeStyle=entityRelationEdgeStyle;fontSize=12;html=1;endArrow=ERoneToMany;exitX=1;exitY=0.5;exitDx=0;exitDy=0;entryX=0;entryY=0.5;entryDx=0;entryDy=0;" edge="1" parent="1" source="80GWJ3M3lElaVonBWue8-15" target="80GWJ3M3lElaVonBWue8-107">
          <mxGeometry width="100" height="100" relative="1" as="geometry">
            <mxPoint x="-520" y="440" as="sourcePoint" />
            <mxPoint x="-460" y="340" as="targetPoint" />
          </mxGeometry>
        </mxCell>
        <mxCell id="80GWJ3M3lElaVonBWue8-117" value="" style="edgeStyle=entityRelationEdgeStyle;fontSize=12;html=1;endArrow=ERoneToMany;exitX=0;exitY=0.5;exitDx=0;exitDy=0;entryX=1;entryY=0.5;entryDx=0;entryDy=0;" edge="1" parent="1" source="80GWJ3M3lElaVonBWue8-85" target="80GWJ3M3lElaVonBWue8-120">
          <mxGeometry width="100" height="100" relative="1" as="geometry">
            <mxPoint x="-470" y="520" as="sourcePoint" />
            <mxPoint x="-390" y="720" as="targetPoint" />
          </mxGeometry>
        </mxCell>
        <mxCell id="80GWJ3M3lElaVonBWue8-118" value="" style="edgeStyle=entityRelationEdgeStyle;fontSize=12;html=1;endArrow=ERmandOne;startArrow=ERmandOne;exitX=1;exitY=0.5;exitDx=0;exitDy=0;entryX=0;entryY=0.5;entryDx=0;entryDy=0;" edge="1" parent="1" source="80GWJ3M3lElaVonBWue8-89" target="80GWJ3M3lElaVonBWue8-110">
          <mxGeometry width="100" height="100" relative="1" as="geometry">
            <mxPoint x="-460" y="580" as="sourcePoint" />
            <mxPoint x="-360" y="480" as="targetPoint" />
          </mxGeometry>
        </mxCell>
        <mxCell id="80GWJ3M3lElaVonBWue8-119" value="urls" style="shape=table;startSize=30;container=1;collapsible=1;childLayout=tableLayout;fixedRows=1;rowLines=0;fontStyle=1;align=center;resizeLast=1;" vertex="1" parent="1">
          <mxGeometry x="-720" width="180" height="160" as="geometry" />
        </mxCell>
        <mxCell id="80GWJ3M3lElaVonBWue8-120" value="" style="shape=partialRectangle;collapsible=0;dropTarget=0;pointerEvents=0;fillColor=none;top=0;left=0;bottom=1;right=0;points=[[0,0.5],[1,0.5]];portConstraint=eastwest;" vertex="1" parent="80GWJ3M3lElaVonBWue8-119">
          <mxGeometry y="30" width="180" height="30" as="geometry" />
        </mxCell>
        <mxCell id="80GWJ3M3lElaVonBWue8-121" value="PK" style="shape=partialRectangle;connectable=0;fillColor=none;top=0;left=0;bottom=0;right=0;fontStyle=1;overflow=hidden;" vertex="1" parent="80GWJ3M3lElaVonBWue8-120">
          <mxGeometry width="30" height="30" as="geometry" />
        </mxCell>
        <mxCell id="80GWJ3M3lElaVonBWue8-122" value="id" style="shape=partialRectangle;connectable=0;fillColor=none;top=0;left=0;bottom=0;right=0;align=left;spacingLeft=6;fontStyle=5;overflow=hidden;" vertex="1" parent="80GWJ3M3lElaVonBWue8-120">
          <mxGeometry x="30" width="150" height="30" as="geometry" />
        </mxCell>
        <mxCell id="80GWJ3M3lElaVonBWue8-123" value="" style="shape=partialRectangle;collapsible=0;dropTarget=0;pointerEvents=0;fillColor=none;top=0;left=0;bottom=0;right=0;points=[[0,0.5],[1,0.5]];portConstraint=eastwest;" vertex="1" parent="80GWJ3M3lElaVonBWue8-119">
          <mxGeometry y="60" width="180" height="30" as="geometry" />
        </mxCell>
        <mxCell id="80GWJ3M3lElaVonBWue8-124" value="" style="shape=partialRectangle;connectable=0;fillColor=none;top=0;left=0;bottom=0;right=0;editable=1;overflow=hidden;" vertex="1" parent="80GWJ3M3lElaVonBWue8-123">
          <mxGeometry width="30" height="30" as="geometry" />
        </mxCell>
        <mxCell id="80GWJ3M3lElaVonBWue8-125" value="thumbnail_photo" style="shape=partialRectangle;connectable=0;fillColor=none;top=0;left=0;bottom=0;right=0;align=left;spacingLeft=6;overflow=hidden;" vertex="1" parent="80GWJ3M3lElaVonBWue8-123">
          <mxGeometry x="30" width="150" height="30" as="geometry" />
        </mxCell>
        <mxCell id="80GWJ3M3lElaVonBWue8-126" value="" style="shape=partialRectangle;collapsible=0;dropTarget=0;pointerEvents=0;fillColor=none;top=0;left=0;bottom=0;right=0;points=[[0,0.5],[1,0.5]];portConstraint=eastwest;" vertex="1" parent="80GWJ3M3lElaVonBWue8-119">
          <mxGeometry y="90" width="180" height="30" as="geometry" />
        </mxCell>
        <mxCell id="80GWJ3M3lElaVonBWue8-127" value="" style="shape=partialRectangle;connectable=0;fillColor=none;top=0;left=0;bottom=0;right=0;editable=1;overflow=hidden;" vertex="1" parent="80GWJ3M3lElaVonBWue8-126">
          <mxGeometry width="30" height="30" as="geometry" />
        </mxCell>
        <mxCell id="80GWJ3M3lElaVonBWue8-128" value="cover_photo" style="shape=partialRectangle;connectable=0;fillColor=none;top=0;left=0;bottom=0;right=0;align=left;spacingLeft=6;overflow=hidden;" vertex="1" parent="80GWJ3M3lElaVonBWue8-126">
          <mxGeometry x="30" width="150" height="30" as="geometry" />
        </mxCell>
        <mxCell id="80GWJ3M3lElaVonBWue8-129" value="" style="shape=partialRectangle;collapsible=0;dropTarget=0;pointerEvents=0;fillColor=none;top=0;left=0;bottom=0;right=0;points=[[0,0.5],[1,0.5]];portConstraint=eastwest;" vertex="1" parent="80GWJ3M3lElaVonBWue8-119">
          <mxGeometry y="120" width="180" height="30" as="geometry" />
        </mxCell>
        <mxCell id="80GWJ3M3lElaVonBWue8-130" value="" style="shape=partialRectangle;connectable=0;fillColor=none;top=0;left=0;bottom=0;right=0;editable=1;overflow=hidden;" vertex="1" parent="80GWJ3M3lElaVonBWue8-129">
          <mxGeometry width="30" height="30" as="geometry" />
        </mxCell>
        <mxCell id="80GWJ3M3lElaVonBWue8-131" value="" style="shape=partialRectangle;connectable=0;fillColor=none;top=0;left=0;bottom=0;right=0;align=left;spacingLeft=6;overflow=hidden;" vertex="1" parent="80GWJ3M3lElaVonBWue8-129">
          <mxGeometry x="30" width="150" height="30" as="geometry" />
        </mxCell>
        <mxCell id="80GWJ3M3lElaVonBWue8-132" value="" style="edgeStyle=entityRelationEdgeStyle;fontSize=12;html=1;endArrow=ERmandOne;startArrow=ERmandOne;entryX=0;entryY=0.5;entryDx=0;entryDy=0;exitX=0;exitY=0.5;exitDx=0;exitDy=0;" edge="1" parent="1" source="80GWJ3M3lElaVonBWue8-50" target="80GWJ3M3lElaVonBWue8-2">
          <mxGeometry width="100" height="100" relative="1" as="geometry">
            <mxPoint x="-130" y="60" as="sourcePoint" />
            <mxPoint x="-360" y="210" as="targetPoint" />
          </mxGeometry>
        </mxCell>
        <mxCell id="80GWJ3M3lElaVonBWue8-133" value="owners" style="shape=table;startSize=30;container=1;collapsible=1;childLayout=tableLayout;fixedRows=1;rowLines=0;fontStyle=1;align=center;resizeLast=1;" vertex="1" parent="1">
          <mxGeometry x="-570" y="-420" width="180" height="220" as="geometry" />
        </mxCell>
        <mxCell id="80GWJ3M3lElaVonBWue8-134" value="" style="shape=partialRectangle;collapsible=0;dropTarget=0;pointerEvents=0;fillColor=none;top=0;left=0;bottom=1;right=0;points=[[0,0.5],[1,0.5]];portConstraint=eastwest;" vertex="1" parent="80GWJ3M3lElaVonBWue8-133">
          <mxGeometry y="30" width="180" height="30" as="geometry" />
        </mxCell>
        <mxCell id="80GWJ3M3lElaVonBWue8-135" value="PK" style="shape=partialRectangle;connectable=0;fillColor=none;top=0;left=0;bottom=0;right=0;fontStyle=1;overflow=hidden;" vertex="1" parent="80GWJ3M3lElaVonBWue8-134">
          <mxGeometry width="30" height="30" as="geometry" />
        </mxCell>
        <mxCell id="80GWJ3M3lElaVonBWue8-136" value="id" style="shape=partialRectangle;connectable=0;fillColor=none;top=0;left=0;bottom=0;right=0;align=left;spacingLeft=6;fontStyle=5;overflow=hidden;" vertex="1" parent="80GWJ3M3lElaVonBWue8-134">
          <mxGeometry x="30" width="150" height="30" as="geometry" />
        </mxCell>
        <mxCell id="80GWJ3M3lElaVonBWue8-137" value="" style="shape=partialRectangle;collapsible=0;dropTarget=0;pointerEvents=0;fillColor=none;top=0;left=0;bottom=0;right=0;points=[[0,0.5],[1,0.5]];portConstraint=eastwest;" vertex="1" parent="80GWJ3M3lElaVonBWue8-133">
          <mxGeometry y="60" width="180" height="30" as="geometry" />
        </mxCell>
        <mxCell id="80GWJ3M3lElaVonBWue8-138" value="" style="shape=partialRectangle;connectable=0;fillColor=none;top=0;left=0;bottom=0;right=0;editable=1;overflow=hidden;" vertex="1" parent="80GWJ3M3lElaVonBWue8-137">
          <mxGeometry width="30" height="30" as="geometry" />
        </mxCell>
        <mxCell id="80GWJ3M3lElaVonBWue8-139" value="name" style="shape=partialRectangle;connectable=0;fillColor=none;top=0;left=0;bottom=0;right=0;align=left;spacingLeft=6;overflow=hidden;" vertex="1" parent="80GWJ3M3lElaVonBWue8-137">
          <mxGeometry x="30" width="150" height="30" as="geometry" />
        </mxCell>
        <mxCell id="80GWJ3M3lElaVonBWue8-140" value="" style="shape=partialRectangle;collapsible=0;dropTarget=0;pointerEvents=0;fillColor=none;top=0;left=0;bottom=0;right=0;points=[[0,0.5],[1,0.5]];portConstraint=eastwest;" vertex="1" parent="80GWJ3M3lElaVonBWue8-133">
          <mxGeometry y="90" width="180" height="30" as="geometry" />
        </mxCell>
        <mxCell id="80GWJ3M3lElaVonBWue8-141" value="" style="shape=partialRectangle;connectable=0;fillColor=none;top=0;left=0;bottom=0;right=0;editable=1;overflow=hidden;" vertex="1" parent="80GWJ3M3lElaVonBWue8-140">
          <mxGeometry width="30" height="30" as="geometry" />
        </mxCell>
        <mxCell id="80GWJ3M3lElaVonBWue8-142" value="email_address" style="shape=partialRectangle;connectable=0;fillColor=none;top=0;left=0;bottom=0;right=0;align=left;spacingLeft=6;overflow=hidden;" vertex="1" parent="80GWJ3M3lElaVonBWue8-140">
          <mxGeometry x="30" width="150" height="30" as="geometry" />
        </mxCell>
        <mxCell id="80GWJ3M3lElaVonBWue8-143" value="" style="shape=partialRectangle;collapsible=0;dropTarget=0;pointerEvents=0;fillColor=none;top=0;left=0;bottom=0;right=0;points=[[0,0.5],[1,0.5]];portConstraint=eastwest;" vertex="1" parent="80GWJ3M3lElaVonBWue8-133">
          <mxGeometry y="120" width="180" height="30" as="geometry" />
        </mxCell>
        <mxCell id="80GWJ3M3lElaVonBWue8-144" value="" style="shape=partialRectangle;connectable=0;fillColor=none;top=0;left=0;bottom=0;right=0;editable=1;overflow=hidden;" vertex="1" parent="80GWJ3M3lElaVonBWue8-143">
          <mxGeometry width="30" height="30" as="geometry" />
        </mxCell>
        <mxCell id="80GWJ3M3lElaVonBWue8-145" value="password" style="shape=partialRectangle;connectable=0;fillColor=none;top=0;left=0;bottom=0;right=0;align=left;spacingLeft=6;overflow=hidden;" vertex="1" parent="80GWJ3M3lElaVonBWue8-143">
          <mxGeometry x="30" width="150" height="30" as="geometry" />
        </mxCell>
        <mxCell id="80GWJ3M3lElaVonBWue8-178" value="" style="shape=partialRectangle;collapsible=0;dropTarget=0;pointerEvents=0;fillColor=none;top=0;left=0;bottom=0;right=0;points=[[0,0.5],[1,0.5]];portConstraint=eastwest;" vertex="1" parent="80GWJ3M3lElaVonBWue8-133">
          <mxGeometry y="150" width="180" height="30" as="geometry" />
        </mxCell>
        <mxCell id="80GWJ3M3lElaVonBWue8-179" value="FK" style="shape=partialRectangle;connectable=0;fillColor=none;top=0;left=0;bottom=0;right=0;editable=1;overflow=hidden;" vertex="1" parent="80GWJ3M3lElaVonBWue8-178">
          <mxGeometry width="30" height="30" as="geometry" />
        </mxCell>
        <mxCell id="80GWJ3M3lElaVonBWue8-180" value="property_id" style="shape=partialRectangle;connectable=0;fillColor=none;top=0;left=0;bottom=0;right=0;align=left;spacingLeft=6;overflow=hidden;" vertex="1" parent="80GWJ3M3lElaVonBWue8-178">
          <mxGeometry x="30" width="150" height="30" as="geometry" />
        </mxCell>
        <mxCell id="80GWJ3M3lElaVonBWue8-187" value="" style="shape=partialRectangle;collapsible=0;dropTarget=0;pointerEvents=0;fillColor=none;top=0;left=0;bottom=0;right=0;points=[[0,0.5],[1,0.5]];portConstraint=eastwest;" vertex="1" parent="80GWJ3M3lElaVonBWue8-133">
          <mxGeometry y="180" width="180" height="30" as="geometry" />
        </mxCell>
        <mxCell id="80GWJ3M3lElaVonBWue8-188" value="" style="shape=partialRectangle;connectable=0;fillColor=none;top=0;left=0;bottom=0;right=0;editable=1;overflow=hidden;" vertex="1" parent="80GWJ3M3lElaVonBWue8-187">
          <mxGeometry width="30" height="30" as="geometry" />
        </mxCell>
        <mxCell id="80GWJ3M3lElaVonBWue8-189" value="rental_status boolean" style="shape=partialRectangle;connectable=0;fillColor=none;top=0;left=0;bottom=0;right=0;align=left;spacingLeft=6;overflow=hidden;" vertex="1" parent="80GWJ3M3lElaVonBWue8-187">
          <mxGeometry x="30" width="150" height="30" as="geometry" />
        </mxCell>
        <mxCell id="80GWJ3M3lElaVonBWue8-146" value="guests" style="shape=table;startSize=30;container=1;collapsible=1;childLayout=tableLayout;fixedRows=1;rowLines=0;fontStyle=1;align=center;resizeLast=1;" vertex="1" parent="1">
          <mxGeometry x="-680" y="-890" width="180" height="220" as="geometry" />
        </mxCell>
        <mxCell id="80GWJ3M3lElaVonBWue8-147" value="" style="shape=partialRectangle;collapsible=0;dropTarget=0;pointerEvents=0;fillColor=none;top=0;left=0;bottom=1;right=0;points=[[0,0.5],[1,0.5]];portConstraint=eastwest;" vertex="1" parent="80GWJ3M3lElaVonBWue8-146">
          <mxGeometry y="30" width="180" height="30" as="geometry" />
        </mxCell>
        <mxCell id="80GWJ3M3lElaVonBWue8-148" value="PK" style="shape=partialRectangle;connectable=0;fillColor=none;top=0;left=0;bottom=0;right=0;fontStyle=1;overflow=hidden;" vertex="1" parent="80GWJ3M3lElaVonBWue8-147">
          <mxGeometry width="30" height="30" as="geometry" />
        </mxCell>
        <mxCell id="80GWJ3M3lElaVonBWue8-149" value="id" style="shape=partialRectangle;connectable=0;fillColor=none;top=0;left=0;bottom=0;right=0;align=left;spacingLeft=6;fontStyle=5;overflow=hidden;" vertex="1" parent="80GWJ3M3lElaVonBWue8-147">
          <mxGeometry x="30" width="150" height="30" as="geometry" />
        </mxCell>
        <mxCell id="80GWJ3M3lElaVonBWue8-150" value="" style="shape=partialRectangle;collapsible=0;dropTarget=0;pointerEvents=0;fillColor=none;top=0;left=0;bottom=0;right=0;points=[[0,0.5],[1,0.5]];portConstraint=eastwest;" vertex="1" parent="80GWJ3M3lElaVonBWue8-146">
          <mxGeometry y="60" width="180" height="30" as="geometry" />
        </mxCell>
        <mxCell id="80GWJ3M3lElaVonBWue8-151" value="" style="shape=partialRectangle;connectable=0;fillColor=none;top=0;left=0;bottom=0;right=0;editable=1;overflow=hidden;" vertex="1" parent="80GWJ3M3lElaVonBWue8-150">
          <mxGeometry width="30" height="30" as="geometry" />
        </mxCell>
        <mxCell id="80GWJ3M3lElaVonBWue8-152" value="name" style="shape=partialRectangle;connectable=0;fillColor=none;top=0;left=0;bottom=0;right=0;align=left;spacingLeft=6;overflow=hidden;" vertex="1" parent="80GWJ3M3lElaVonBWue8-150">
          <mxGeometry x="30" width="150" height="30" as="geometry" />
        </mxCell>
        <mxCell id="80GWJ3M3lElaVonBWue8-153" value="" style="shape=partialRectangle;collapsible=0;dropTarget=0;pointerEvents=0;fillColor=none;top=0;left=0;bottom=0;right=0;points=[[0,0.5],[1,0.5]];portConstraint=eastwest;" vertex="1" parent="80GWJ3M3lElaVonBWue8-146">
          <mxGeometry y="90" width="180" height="30" as="geometry" />
        </mxCell>
        <mxCell id="80GWJ3M3lElaVonBWue8-154" value="" style="shape=partialRectangle;connectable=0;fillColor=none;top=0;left=0;bottom=0;right=0;editable=1;overflow=hidden;" vertex="1" parent="80GWJ3M3lElaVonBWue8-153">
          <mxGeometry width="30" height="30" as="geometry" />
        </mxCell>
        <mxCell id="80GWJ3M3lElaVonBWue8-155" value="email_address" style="shape=partialRectangle;connectable=0;fillColor=none;top=0;left=0;bottom=0;right=0;align=left;spacingLeft=6;overflow=hidden;" vertex="1" parent="80GWJ3M3lElaVonBWue8-153">
          <mxGeometry x="30" width="150" height="30" as="geometry" />
        </mxCell>
        <mxCell id="80GWJ3M3lElaVonBWue8-156" value="" style="shape=partialRectangle;collapsible=0;dropTarget=0;pointerEvents=0;fillColor=none;top=0;left=0;bottom=0;right=0;points=[[0,0.5],[1,0.5]];portConstraint=eastwest;" vertex="1" parent="80GWJ3M3lElaVonBWue8-146">
          <mxGeometry y="120" width="180" height="30" as="geometry" />
        </mxCell>
        <mxCell id="80GWJ3M3lElaVonBWue8-157" value="" style="shape=partialRectangle;connectable=0;fillColor=none;top=0;left=0;bottom=0;right=0;editable=1;overflow=hidden;" vertex="1" parent="80GWJ3M3lElaVonBWue8-156">
          <mxGeometry width="30" height="30" as="geometry" />
        </mxCell>
        <mxCell id="80GWJ3M3lElaVonBWue8-158" value="password" style="shape=partialRectangle;connectable=0;fillColor=none;top=0;left=0;bottom=0;right=0;align=left;spacingLeft=6;overflow=hidden;" vertex="1" parent="80GWJ3M3lElaVonBWue8-156">
          <mxGeometry x="30" width="150" height="30" as="geometry" />
        </mxCell>
        <mxCell id="80GWJ3M3lElaVonBWue8-184" value="" style="shape=partialRectangle;collapsible=0;dropTarget=0;pointerEvents=0;fillColor=none;top=0;left=0;bottom=0;right=0;points=[[0,0.5],[1,0.5]];portConstraint=eastwest;" vertex="1" parent="80GWJ3M3lElaVonBWue8-146">
          <mxGeometry y="150" width="180" height="30" as="geometry" />
        </mxCell>
        <mxCell id="80GWJ3M3lElaVonBWue8-185" value="" style="shape=partialRectangle;connectable=0;fillColor=none;top=0;left=0;bottom=0;right=0;editable=1;overflow=hidden;" vertex="1" parent="80GWJ3M3lElaVonBWue8-184">
          <mxGeometry width="30" height="30" as="geometry" />
        </mxCell>
        <mxCell id="80GWJ3M3lElaVonBWue8-186" value="reservation_id" style="shape=partialRectangle;connectable=0;fillColor=none;top=0;left=0;bottom=0;right=0;align=left;spacingLeft=6;overflow=hidden;" vertex="1" parent="80GWJ3M3lElaVonBWue8-184">
          <mxGeometry x="30" width="150" height="30" as="geometry" />
        </mxCell>
        <mxCell id="80GWJ3M3lElaVonBWue8-190" value="" style="shape=partialRectangle;collapsible=0;dropTarget=0;pointerEvents=0;fillColor=none;top=0;left=0;bottom=0;right=0;points=[[0,0.5],[1,0.5]];portConstraint=eastwest;" vertex="1" parent="80GWJ3M3lElaVonBWue8-146">
          <mxGeometry y="180" width="180" height="30" as="geometry" />
        </mxCell>
        <mxCell id="80GWJ3M3lElaVonBWue8-191" value="" style="shape=partialRectangle;connectable=0;fillColor=none;top=0;left=0;bottom=0;right=0;editable=1;overflow=hidden;" vertex="1" parent="80GWJ3M3lElaVonBWue8-190">
          <mxGeometry width="30" height="30" as="geometry" />
        </mxCell>
        <mxCell id="80GWJ3M3lElaVonBWue8-192" value="property_review_id" style="shape=partialRectangle;connectable=0;fillColor=none;top=0;left=0;bottom=0;right=0;align=left;spacingLeft=6;overflow=hidden;" vertex="1" parent="80GWJ3M3lElaVonBWue8-190">
          <mxGeometry x="30" width="150" height="30" as="geometry" />
        </mxCell>
        <mxCell id="80GWJ3M3lElaVonBWue8-163" value="" style="edgeStyle=entityRelationEdgeStyle;fontSize=12;html=1;endArrow=ERmandOne;startArrow=ERmandOne;entryX=0;entryY=0.5;entryDx=0;entryDy=0;exitX=1;exitY=0.5;exitDx=0;exitDy=0;" edge="1" parent="1" source="80GWJ3M3lElaVonBWue8-147" target="80GWJ3M3lElaVonBWue8-160">
          <mxGeometry width="100" height="100" relative="1" as="geometry">
            <mxPoint x="-180" y="-130" as="sourcePoint" />
            <mxPoint x="-270" y="60" as="targetPoint" />
          </mxGeometry>
        </mxCell>
        <mxCell id="80GWJ3M3lElaVonBWue8-168" value="" style="edgeStyle=entityRelationEdgeStyle;fontSize=12;html=1;endArrow=ERmandOne;startArrow=ERmandOne;exitX=1;exitY=0.5;exitDx=0;exitDy=0;" edge="1" parent="1" source="80GWJ3M3lElaVonBWue8-147" target="80GWJ3M3lElaVonBWue8-37">
          <mxGeometry width="100" height="100" relative="1" as="geometry">
            <mxPoint x="-650" y="-390" as="sourcePoint" />
            <mxPoint x="-280" y="-400" as="targetPoint" />
          </mxGeometry>
        </mxCell>
        <mxCell id="80GWJ3M3lElaVonBWue8-169" value="" style="edgeStyle=entityRelationEdgeStyle;fontSize=12;html=1;endArrow=ERmandOne;startArrow=ERmandOne;exitX=0;exitY=0.5;exitDx=0;exitDy=0;entryX=0;entryY=0.5;entryDx=0;entryDy=0;" edge="1" parent="1" source="80GWJ3M3lElaVonBWue8-41" target="80GWJ3M3lElaVonBWue8-165">
          <mxGeometry width="100" height="100" relative="1" as="geometry">
            <mxPoint x="-830" y="-105" as="sourcePoint" />
            <mxPoint x="-440" y="-135" as="targetPoint" />
          </mxGeometry>
        </mxCell>
        <mxCell id="80GWJ3M3lElaVonBWue8-176" value="" style="edgeStyle=entityRelationEdgeStyle;fontSize=12;html=1;endArrow=ERone;endFill=1;entryX=1;entryY=0.5;entryDx=0;entryDy=0;exitX=0;exitY=0.5;exitDx=0;exitDy=0;" edge="1" parent="1" source="80GWJ3M3lElaVonBWue8-134" target="80GWJ3M3lElaVonBWue8-170">
          <mxGeometry width="100" height="100" relative="1" as="geometry">
            <mxPoint x="-410" y="-40" as="sourcePoint" />
            <mxPoint x="-310" y="-140" as="targetPoint" />
          </mxGeometry>
        </mxCell>
        <mxCell id="80GWJ3M3lElaVonBWue8-177" value="" style="edgeStyle=entityRelationEdgeStyle;fontSize=12;html=1;endArrow=ERone;endFill=1;entryX=0;entryY=0.5;entryDx=0;entryDy=0;exitX=0;exitY=0.5;exitDx=0;exitDy=0;" edge="1" parent="1" source="80GWJ3M3lElaVonBWue8-147" target="80GWJ3M3lElaVonBWue8-173">
          <mxGeometry width="100" height="100" relative="1" as="geometry">
            <mxPoint x="-730" y="-160.00000000000023" as="sourcePoint" />
            <mxPoint x="-810" y="-30.000000000000227" as="targetPoint" />
          </mxGeometry>
        </mxCell>
        <mxCell id="80GWJ3M3lElaVonBWue8-182" value="" style="edgeStyle=entityRelationEdgeStyle;fontSize=12;html=1;endArrow=ERoneToMany;exitX=1;exitY=0.5;exitDx=0;exitDy=0;entryX=0;entryY=0.5;entryDx=0;entryDy=0;" edge="1" parent="1" source="80GWJ3M3lElaVonBWue8-178" target="80GWJ3M3lElaVonBWue8-2">
          <mxGeometry width="100" height="100" relative="1" as="geometry">
            <mxPoint x="-350" y="435" as="sourcePoint" />
            <mxPoint x="-320" y="-230" as="targetPoint" />
          </mxGeometry>
        </mxCell>
        <mxCell id="80GWJ3M3lElaVonBWue8-183" value="" style="edgeStyle=entityRelationEdgeStyle;fontSize=12;html=1;endArrow=ERoneToMany;exitX=1;exitY=0.5;exitDx=0;exitDy=0;entryX=0;entryY=0.5;entryDx=0;entryDy=0;" edge="1" parent="1" source="80GWJ3M3lElaVonBWue8-184" target="80GWJ3M3lElaVonBWue8-41">
          <mxGeometry width="100" height="100" relative="1" as="geometry">
            <mxPoint x="-200" y="-560.0000000000002" as="sourcePoint" />
            <mxPoint x="-170" y="-90" as="targetPoint" />
          </mxGeometry>
        </mxCell>
        <mxCell id="80GWJ3M3lElaVonBWue8-193" value="" style="edgeStyle=entityRelationEdgeStyle;fontSize=12;html=1;endArrow=ERoneToMany;entryX=0;entryY=0.5;entryDx=0;entryDy=0;exitX=1;exitY=0.5;exitDx=0;exitDy=0;" edge="1" parent="1" source="80GWJ3M3lElaVonBWue8-190" target="80GWJ3M3lElaVonBWue8-28">
          <mxGeometry width="100" height="100" relative="1" as="geometry">
            <mxPoint x="-410" y="-630" as="sourcePoint" />
            <mxPoint x="-310" y="-730" as="targetPoint" />
          </mxGeometry>
        </mxCell>
        <mxCell id="80GWJ3M3lElaVonBWue8-194" value="" style="edgeStyle=entityRelationEdgeStyle;fontSize=12;html=1;endArrow=ERoneToMany;entryX=1;entryY=0.5;entryDx=0;entryDy=0;exitX=0;exitY=0.5;exitDx=0;exitDy=0;" edge="1" parent="1" source="80GWJ3M3lElaVonBWue8-2" target="80GWJ3M3lElaVonBWue8-195">
          <mxGeometry width="100" height="100" relative="1" as="geometry">
            <mxPoint x="-70" y="-780" as="sourcePoint" />
            <mxPoint x="-310" y="-895" as="targetPoint" />
          </mxGeometry>
        </mxCell>
      </root>
    </mxGraphModel>
  </diagram>
</mxfile>
